<svg width="313" height="393" fill="none" xmlns="http://www.w3.org/2000/svg"><g filter="url(#filter0_b_5395_7576)"><path d="M0 12.138c0-6.628 5.373-12 12-12h288.104c6.627 0 12 5.372 12 12V352.35a12 12 0 01-10.851 11.945L13.149 392.001C6.099 392.679 0 387.137 0 380.056V12.138z" fill="#fff" fill-opacity=".05"/><path d="M.5 12.138C.5 5.786 5.649.638 12 .638h288.104c6.351 0 11.5 5.148 11.5 11.5V352.35a11.5 11.5 0 01-10.399 11.447L13.101 391.503C6.346 392.153.5 386.842.5 380.056V12.138z" stroke="#fff" stroke-opacity=".1"/></g><defs><filter id="filter0_b_5395_7576" x="-34" y="-33.862" width="380.104" height="459.919" filterUnits="userSpaceOnUse" color-interpolation-filters="sRGB"><feFlood flood-opacity="0" result="BackgroundImageFix"/><feGaussianBlur in="BackgroundImageFix" stdDeviation="17"/><feComposite in2="SourceAlpha" operator="in" result="effect1_backgroundBlur_5395_7576"/><feBlend in="SourceGraphic" in2="effect1_backgroundBlur_5395_7576" result="shape"/></filter></defs></svg>