<svg width="57" height="56" fill="none" xmlns="http://www.w3.org/2000/svg"><rect x=".25" width="56" height="56" rx="28" fill="url(#paint0_linear_10131_6733)" fill-opacity=".1"/><g clip-path="url(#clip0_10131_6733)" stroke-width="1.6" stroke-linecap="round" stroke-linejoin="round"><path d="M19.5 27.2a4 4 0 100-8 4 4 0 000 8z" fill="#fff" stroke="url(#paint1_linear_10131_6733)"/><path d="M37.1 27.2a4 4 0 100-8 4 4 0 000 8z" fill="#fff" stroke="url(#paint2_linear_10131_6733)"/><path d="M19.5 29.6h-3.2a3.2 3.2 0 00-3.2 3.2v2.456a13.84 13.84 0 006.4 1.512" stroke="url(#paint3_linear_10131_6733)"/><path d="M37.1 29.6h3.272a3.2 3.2 0 013.128 3.2v2.456a13.84 13.84 0 01-6.4 1.512" stroke="url(#paint4_linear_10131_6733)"/><path clip-rule="evenodd" d="M32.799 31.2H23.9c-2.43 0-4.4 1.919-4.4 4.285v3.29a19.446 19.446 0 008.8 2.024 19.446 19.446 0 008.8-2.024v-3.29c0-2.33-1.91-4.233-4.301-4.285z" stroke="url(#paint5_linear_10131_6733)"/><path d="M28.3 28a5.6 5.6 0 100-11.2 5.6 5.6 0 000 11.2z" fill="#fff" stroke="url(#paint6_linear_10131_6733)"/></g><defs><linearGradient id="paint0_linear_10131_6733" x1="28.25" y1="0" x2="28.25" y2="56.955" gradientUnits="userSpaceOnUse"><stop stop-color="#220065"/><stop offset="1" stop-color="#1A25FF"/></linearGradient><linearGradient id="paint1_linear_10131_6733" x1="19.5" y1="19.2" x2="19.5" y2="27.336" gradientUnits="userSpaceOnUse"><stop stop-color="#220065"/><stop offset="1" stop-color="#1A25FF"/></linearGradient><linearGradient id="paint2_linear_10131_6733" x1="37.1" y1="19.2" x2="37.1" y2="27.336" gradientUnits="userSpaceOnUse"><stop stop-color="#220065"/><stop offset="1" stop-color="#1A25FF"/></linearGradient><linearGradient id="paint3_linear_10131_6733" x1="16.3" y1="29.6" x2="16.3" y2="36.891" gradientUnits="userSpaceOnUse"><stop stop-color="#220065"/><stop offset="1" stop-color="#1A25FF"/></linearGradient><linearGradient id="paint4_linear_10131_6733" x1="40.3" y1="29.6" x2="40.3" y2="36.891" gradientUnits="userSpaceOnUse"><stop stop-color="#220065"/><stop offset="1" stop-color="#1A25FF"/></linearGradient><linearGradient id="paint5_linear_10131_6733" x1="28.3" y1="31.2" x2="28.3" y2="40.964" gradientUnits="userSpaceOnUse"><stop stop-color="#220065"/><stop offset="1" stop-color="#1A25FF"/></linearGradient><linearGradient id="paint6_linear_10131_6733" x1="28.3" y1="16.8" x2="28.3" y2="28.191" gradientUnits="userSpaceOnUse"><stop stop-color="#220065"/><stop offset="1" stop-color="#1A25FF"/></linearGradient><clipPath id="clip0_10131_6733"><path fill="#fff" transform="translate(12.1 12)" d="M0 0h32.8v32H0z"/></clipPath></defs></svg>