<svg width="56" height="56" fill="none" xmlns="http://www.w3.org/2000/svg"><rect width="56" height="56" rx="28" fill="url(#paint0_linear_10131_6721)" fill-opacity=".1"/><g clip-path="url(#clip0_10131_6721)" stroke-width="1.7"><path d="M28 43.3c8.45 0 15.3-6.85 15.3-15.3 0-8.45-6.85-15.3-15.3-15.3-8.45 0-15.3 6.85-15.3 15.3 0 8.45 6.85 15.3 15.3 15.3z" stroke="url(#paint1_linear_10131_6721)"/><path d="M17.255 17.173c2.763 1.965 6.555 3.177 10.74 3.177 4.372 0 8.315-1.323 11.103-3.445" stroke="url(#paint2_linear_10131_6721)"/><path d="M37.986 39.596c-2.732-2.448-6.395-3.946-10.422-3.946-3.849 0-7.365 1.368-10.054 3.627" stroke="url(#paint3_linear_10131_6721)"/><path d="M28 43.3c4.225 0 7.65-6.85 7.65-15.3 0-8.45-3.425-15.3-7.65-15.3-4.225 0-7.65 6.85-7.65 15.3 0 8.45 3.425 15.3 7.65 15.3z" stroke="url(#paint4_linear_10131_6721)"/><path d="M12.7 28l30.6.425" stroke="url(#paint5_linear_10131_6721)"/></g><defs><linearGradient id="paint0_linear_10131_6721" x1="28" y1="0" x2="28" y2="56.955" gradientUnits="userSpaceOnUse"><stop stop-color="#220065"/><stop offset="1" stop-color="#1A25FF"/></linearGradient><linearGradient id="paint1_linear_10131_6721" x1="28" y1="12.7" x2="28" y2="43.822" gradientUnits="userSpaceOnUse"><stop stop-color="#220065"/><stop offset="1" stop-color="#1A25FF"/></linearGradient><linearGradient id="paint2_linear_10131_6721" x1="28.177" y1="16.905" x2="28.177" y2="20.409" gradientUnits="userSpaceOnUse"><stop stop-color="#220065"/><stop offset="1" stop-color="#1A25FF"/></linearGradient><linearGradient id="paint3_linear_10131_6721" x1="27.748" y1="35.65" x2="27.748" y2="39.664" gradientUnits="userSpaceOnUse"><stop stop-color="#220065"/><stop offset="1" stop-color="#1A25FF"/></linearGradient><linearGradient id="paint4_linear_10131_6721" x1="28" y1="12.7" x2="28" y2="43.822" gradientUnits="userSpaceOnUse"><stop stop-color="#220065"/><stop offset="1" stop-color="#1A25FF"/></linearGradient><linearGradient id="paint5_linear_10131_6721" x1="28" y1="28" x2="28" y2="28.432" gradientUnits="userSpaceOnUse"><stop stop-color="#220065"/><stop offset="1" stop-color="#1A25FF"/></linearGradient><clipPath id="clip0_10131_6721"><path fill="#fff" transform="translate(11 11)" d="M0 0h34v34H0z"/></clipPath></defs></svg>