<svg width="57" height="56" fill="none" xmlns="http://www.w3.org/2000/svg"><rect x=".5" width="56" height="56" rx="28" fill="url(#paint0_linear_10131_6729)" fill-opacity=".1"/><path d="M31.525 22.309v.8a.802.802 0 00.805-.8h-.805zm0-6.8h.805a.801.801 0 00-.642-.784l-.163.784zm-6.059 0l-.163-.784a.801.801 0 00-.642.784h.805zm0 6.8h-.805c0 .442.36.8.805.8v-.8zm17.522 5.635l.243.763a.8.8 0 00.557-.846l-.8.083zm-.537-2.61l-.772.227.003.008.769-.235zm-.181-.607l.771-.228a.681.681 0 00-.013-.04l-.758.268zm-1.136-2.421l.694-.405a.807.807 0 00-.938-.358l.244.763zm-9.606 3.028v.8a.81.81 0 00.243-.038l-.243-.762zm-6.059 0l-.244.762a.808.808 0 00.244.038v-.8zm-9.592-3.041l.244-.763a.807.807 0 00-.938.358l.694.405zm-1.153 2.463l-.758-.266-.006.017.764.25zm-.161.49l-.765-.25-.004.013.769.237zm-.55 2.656l-.801-.085a.8.8 0 00.554.846l.246-.761zm9.586 3.067l.647.476a.796.796 0 00-.4-1.237l-.247.761zm-5.93 7.969l-.647-.476a.796.796 0 00.055 1.017l.593-.541zm2.065 1.84l-.476.645a.384.384 0 00.01.007l.466-.652zm.411.29l-.466.653a.476.476 0 00.012.008l.454-.66zm2.412 1.332l-.324.733c.344.15.747.043.97-.258l-.646-.475zm5.926-7.968l.646-.476a.806.806 0 00-1.294 0l.648.475zm5.932 7.968l-.647.476c.224.3.627.407.971.256l-.324-.732zm2.404-1.325l.453.662a.628.628 0 00.017-.012l-.47-.65zm.421-.3l.47.65.007-.005-.477-.645zm2.062-1.84l.593.54a.796.796 0 00.054-1.016l-.647.476zm-5.93-7.969l-.242-.763a.796.796 0 00-.405 1.239l.648-.476zm-1.042-8.657v-6.8h-1.61v6.8h1.61zm-.642-7.584a15.833 15.833 0 00-6.385 0l.326 1.567c1.891-.39 3.841-.39 5.732 0l.327-1.567zm-7.027.784v6.8h1.61v-6.8h-1.61zm.805 7.6h6.059v-1.6h-6.059v1.6zm18.322 4.752a14.529 14.529 0 00-.568-2.763l-1.538.471c.248.801.417 1.625.506 2.46l1.6-.168zm-.566-2.755l-.18-.607-1.544.456.181.607 1.543-.456zm-.194-.648a15.01 15.01 0 00-1.2-2.557l-1.389.81a13.41 13.41 0 011.072 2.285l1.517-.538zm-11.5.076h-6.059v1.6h6.059v-1.6zm-16.345-2.646a14.986 14.986 0 00-1.217 2.602l1.517.533c.288-.809.652-1.587 1.088-2.325l-1.389-.81zm-1.223 2.618l-.162.49 1.53.5.161-.49-1.53-.5zm-.166.503c-.285.915-.48 1.855-.582 2.808l1.6.17c.092-.85.265-1.69.52-2.504l-1.538-.474zm3.283 14.47a15.087 15.087 0 002.18 1.944l.954-1.29a13.474 13.474 0 01-1.949-1.736l-1.185 1.082zm2.191 1.951l.411.29.933-1.303-.411-.29-.933 1.303zm.423.299a15.617 15.617 0 002.542 1.404l.647-1.466a14.008 14.008 0 01-2.28-1.258l-.91 1.32zm15.048 1.403a15.935 15.935 0 002.533-1.395l-.905-1.323a14.37 14.37 0 01-2.277 1.254l.65 1.464zm2.55-1.407l.42-.3-.938-1.3-.42.3.938 1.3zm.428-.306a14.993 14.993 0 002.178-1.944l-1.187-1.08a13.391 13.391 0 01-1.945 1.735l.954 1.29zM25.714 24.572L16.12 21.53l-.489 1.525 9.593 3.041.489-1.524zm15.176-3.029l-9.605 3.028.486 1.525 9.606-3.028-.487-1.525zM33.615 31.73l9.616-3.022-.486-1.526-9.615 3.022.485 1.526zm6.334 6.73l-5.93-7.969-1.294.952 5.93 7.968 1.294-.951zm-12.114-3.552l5.933 7.969 1.294-.952-5.933-7.968-1.294.951zm-4.631 7.969l5.926-7.969-1.295-.951-5.926 7.968 1.295.952zm-.252-12.382l-5.93 7.968 1.295.951 5.929-7.968-1.294-.951zm-9.186-1.83l9.586 3.067.493-1.523-9.586-3.068-.493 1.523z" fill="url(#paint1_linear_10131_6729)"/><defs><linearGradient id="paint0_linear_10131_6729" x1="28.5" y1="0" x2="28.5" y2="56.955" gradientUnits="userSpaceOnUse"><stop stop-color="#220065"/><stop offset="1" stop-color="#1A25FF"/></linearGradient><linearGradient id="paint1_linear_10131_6729" x1="28.5" y1="14.4" x2="28.5" y2="43.691" gradientUnits="userSpaceOnUse"><stop stop-color="#220065"/><stop offset="1" stop-color="#1A25FF"/></linearGradient></defs></svg>