<svg width="57" height="56" fill="none" xmlns="http://www.w3.org/2000/svg"><rect x=".75" width="56" height="56" rx="28" fill="url(#paint0_linear_10131_6725)" fill-opacity=".1"/><path d="M44.2 22.404c0-.886-.73-1.604-1.631-1.604H24.558c-.893 0-1.946.64-2.345 1.427l-8.26 16.346c-.399.788.01 1.427.91 1.427h27.705c.897 0 1.632-.718 1.632-1.604V22.404z" stroke="url(#paint1_linear_10131_6725)" stroke-width="1.6" stroke-linecap="round"/><path d="M42.569 20.8c.9 0 1.631.718 1.631 1.604v15.992c0 .886-.735 1.604-1.632 1.604H14.864c-.902 0-1.31-.639-.911-1.427l8.26-16.346c.399-.788 1.452-1.427 2.345-1.427" stroke="url(#paint2_linear_10131_6725)" stroke-width="1.6" stroke-linecap="round"/><path d="M33.8 24.8a4.8 4.8 0 100-9.6 4.8 4.8 0 000 9.6z" fill="#E9E7F4"/><path d="M33.8 24.8A4.8 4.8 0 1029 20v1.6" stroke="url(#paint3_linear_10131_6725)" stroke-width="1.6" stroke-linecap="round" stroke-linejoin="round"/><path fill-rule="evenodd" clip-rule="evenodd" d="M37.072 27.2H30.6a3.2 3.2 0 00-3.2 3.2v2.456a13.841 13.841 0 006.4 1.512 13.845 13.845 0 006.4-1.512V30.4a3.2 3.2 0 00-3.128-3.2z" fill="#E9E7F4" stroke="url(#paint4_linear_10131_6725)" stroke-width="1.6" stroke-linecap="round" stroke-linejoin="round"/><path d="M29 17.6h.8v4a.8.8 0 01-.8.8 1.6 1.6 0 01-1.6-1.6v-1.6a1.6 1.6 0 011.6-1.6z" fill="url(#paint5_linear_10131_6725)"/><path d="M38.6 22.4h-.8v-4.8h.8a1.6 1.6 0 011.6 1.6v1.6a1.6 1.6 0 01-1.6 1.6z" fill="url(#paint6_linear_10131_6725)"/><path d="M32.6 23.2H35a1.2 1.2 0 110 2.4h-2.4a1.2 1.2 0 010-2.4z" fill="url(#paint7_linear_10131_6725)"/><defs><linearGradient id="paint0_linear_10131_6725" x1="28.75" y1="0" x2="28.75" y2="56.955" gradientUnits="userSpaceOnUse"><stop stop-color="#220065"/><stop offset="1" stop-color="#1A25FF"/></linearGradient><linearGradient id="paint1_linear_10131_6725" x1="29" y1="20.8" x2="29" y2="40.328" gradientUnits="userSpaceOnUse"><stop stop-color="#220065"/><stop offset="1" stop-color="#1A25FF"/></linearGradient><linearGradient id="paint2_linear_10131_6725" x1="29" y1="20.8" x2="29" y2="40.328" gradientUnits="userSpaceOnUse"><stop stop-color="#220065"/><stop offset="1" stop-color="#1A25FF"/></linearGradient><linearGradient id="paint3_linear_10131_6725" x1="33.8" y1="15.2" x2="33.8" y2="24.964" gradientUnits="userSpaceOnUse"><stop stop-color="#220065"/><stop offset="1" stop-color="#1A25FF"/></linearGradient><linearGradient id="paint4_linear_10131_6725" x1="33.8" y1="27.2" x2="33.8" y2="34.491" gradientUnits="userSpaceOnUse"><stop stop-color="#220065"/><stop offset="1" stop-color="#1A25FF"/></linearGradient><linearGradient id="paint5_linear_10131_6725" x1="28.6" y1="17.6" x2="28.6" y2="22.482" gradientUnits="userSpaceOnUse"><stop stop-color="#220065"/><stop offset="1" stop-color="#1A25FF"/></linearGradient><linearGradient id="paint6_linear_10131_6725" x1="39" y1="17.6" x2="39" y2="22.482" gradientUnits="userSpaceOnUse"><stop stop-color="#220065"/><stop offset="1" stop-color="#1A25FF"/></linearGradient><linearGradient id="paint7_linear_10131_6725" x1="33.8" y1="23.2" x2="33.8" y2="25.641" gradientUnits="userSpaceOnUse"><stop stop-color="#220065"/><stop offset="1" stop-color="#1A25FF"/></linearGradient></defs></svg>